v -1.91222918 -0.2499996722 1.599036932 3.84428045e-011 1 0.2833295166
vn -3.167130558e-008 -1 4.586269586e-009
v -2.474067688 -0.2499996722 1.683278561 2.274400096e-018 1 0.2833295166
vn -2.268248878e-008 -1 3.501912538e-009
v -2.169376612 0.2500003576 2.060280561 8.345598068e-022 1 0.2833295166
vn 6.8505841e-008 1 -6.19906404e-010
v -1.622437954 0.250000298 1.890057206 0.002395605901 1 0.2850463688
vn 7.60976917e-008 1 -2.624918771e-008
v -2.344021559 -0.249999702 0.8531545997 4.485802788e-012 1 0.2833295166
vn -4.840633139e-008 -1 7.661252965e-009
v -0.852660954 0.2500002682 2.342666864 6.732755082e-006 1 0.2833343744
vn 1.0784278e-007 1 -5.146405613e-008
v -2.34402132 0.2500003278 0.8531545997 1.675265509e-007 1 0.2833296359
vn 3.726866993e-008 1 -5.361025757e-008
v -1.869892836 0.2500003576 2.334289789 8.345596048e-022 1 0.2833294868
vn 7.868898422e-008 1 -4.987537494e-008
v -1.383296847 0.2500003576 2.651476383 8.345596553e-022 1 0.2833295166
vn 9.134976153e-008 1 -6.639303507e-008
v -2.813616753 -0.2499996424 1.024073243 8.345596553e-022 1 0.2833295166
vn -5.960017901e-008 -1 6.965331423e-009
v -1.330984354 0.250000298 2.105601788 1.410027926e-005 1 0.2833396196
vn 8.317262967e-008 1 -6.502822458e-008
v -1.023232222 0.250000298 2.81130743 8.349411863e-022 1 0.2833295465
vn 1.160390184e-007 1 -4.439889523e-008
v -1.622437954 -0.2499997318 1.890057206 8.345597058e-022 1 0.2833295763
vn -6.78862051e-008 -1 2.675725952e-008
v -2.668220282 0.2500003576 1.355962753 8.345597058e-022 1 0.2833295465
vn 3.590751163e-008 1 -3.965982032e-008
v -0.852660954 -0.2499997467 2.342666864 1.677282171e-007 1 0.2833296657
vn -1.00468192e-007 -1 6.193623392e-008
v -1.023232222 -0.2499997318 2.81130743 8.345596553e-022 1 0.2833295166
vn -1.160389758e-007 -1 4.439888457e-008
v -2.16973567 -0.2499996722 1.226982355 8.345596553e-022 1 0.2833295166
vn -2.009770661e-008 -1 8.155094378e-009
v -1.383296847 -0.2499996722 2.651476622 8.345596048e-022 1 0.2833295166
vn -8.996700274e-008 -1 6.835655597e-008
v -1.869892836 -0.2499996722 2.334289789 8.345597563e-022 1 0.2833295465
vn -7.464543472e-008 -1 5.261884439e-008
v -2.474067688 0.2500003576 1.683278561 8.345596048e-022 1 0.2833295465
vn 4.015154431e-008 1 -3.051650932e-009
v -1.91222918 0.2500003576 1.599036932 6.676646649e-007 1 0.2833300233
vn 5.314254992e-008 1 4.086598171e-009
v -2.813616753 0.2500003576 1.024073243 8.345597563e-022 1 0.2833295166
vn 4.088393268e-008 1 -6.442726885e-008
v -2.169376612 -0.2499996722 2.060280561 8.345596048e-022 1 0.2833294868
vn -4.814813437e-008 -1 1.202883926e-008
v -1.330984354 -0.2499997318 2.105601788 1.414004708e-017 1 0.2833295465
vn -8.153061515e-008 -1 6.735989899e-008
v -2.16973567 0.2500003576 1.226982355 2.097375607e-010 1 0.2833295465
vn 3.062759646e-008 1 -2.223533535e-008
v -2.668220282 -0.2499996722 1.355962873 8.345597058e-022 1 0.2833295166
vn -3.828978379e-008 -1 6.64513955e-009
v -2.344021559 -0.249999702 0.8531545997 4.485802788e-012 1 0.2833295166
vn -0.3420201242 2.445520231e-008 -0.9396926165
v -0.852660954 0.2500002682 2.342666864 6.732755082e-006 1 0.2833343744
vn 0.9396925569 2.094270102e-017 0.3420202434
v -2.34402132 0.2500003278 0.8531545997 1.675265509e-007 1 0.2833296359
vn -0.3420201242 2.667839993e-008 -0.9396926165
v -2.813616753 -0.2499996424 1.024073243 8.345596553e-022 1 0.2833295166
vn -0.3420201242 2.667839993e-008 -0.9396926165
v -1.023232222 0.250000298 2.81130743 8.349411863e-022 1 0.2833295465
vn 0.9396926165 2.094269937e-017 0.3420202434
v -0.852660954 -0.2499997467 2.342666864 1.677282171e-007 1 0.2833296657
vn 0.9396926165 2.094269937e-017 0.3420202434
v -1.023232222 -0.2499997318 2.81130743 8.345596553e-022 1 0.2833295166
vn 0.9396926165 2.094269937e-017 0.3420202434
v -2.813616753 0.2500003576 1.024073243 8.345597563e-022 1 0.2833295166
vn -0.3420201242 2.890160289e-008 -0.9396926165
v -1.91222918 -0.2499996722 1.599036932 3.84428045e-011 1 0.2833295166
vn 0.7482590079 -3.932230541e-008 -0.6634067297
v -2.474067688 -0.2499996722 1.683278561 2.274400096e-018 1 0.2833295166
vn -0.835516572 9.53691881e-008 0.5494652987
v -2.169376612 0.2500003576 2.060280561 8.345598068e-022 1 0.2833295166
vn -0.7049379349 1.490550119e-007 0.7092689872
v -1.622437954 0.250000298 1.890057206 0.002395605901 1 0.2850463688
vn 0.6867581606 -2.413153055e-008 -0.7268859744
v -2.344021559 -0.249999702 0.8531545997 4.485802788e-012 1 0.2833295166
vn 0.8868585229 -5.319070695e-008 -0.46204108
v -0.852660954 0.2500002682 2.342666864 6.732755082e-006 1 0.2833343744
vn 0.47657004 -3.237868475e-017 -0.8791365027
v -2.34402132 0.2500003278 0.8531545997 1.675265509e-007 1 0.2833296359
vn 0.8966246247 -5.169388473e-008 -0.4427914619
v -1.869892836 0.2500003576 2.334289789 8.345596048e-022 1 0.2833294868
vn -0.5901423097 2.928651952e-007 0.8072992563
v -1.383296847 0.2500003576 2.651476383 8.345596553e-022 1 0.2833295166
vn -0.4879666567 3.073230914e-007 0.8728622794
v -2.813616753 -0.2499996424 1.024073243 8.345596553e-022 1 0.2833295166
vn -0.9095031023 1.342559131e-007 0.4156971872
v -1.330984354 0.250000298 2.105601788 1.410027926e-005 1 0.2833396196
vn 0.5620711446 -3.626432044e-009 -0.8270888925
v -1.023232222 0.250000298 2.81130743 8.349411863e-022 1 0.2833295465
vn -0.4288363457 1.89772507e-007 0.9033821821
v -1.622437954 -0.2499997318 1.890057206 8.345597058e-022 1 0.2833295763
vn 0.6363810897 -1.3068993e-008 -0.7713748217
v -2.668220282 0.2500003576 1.355962753 8.345597058e-022 1 0.2833295465
vn -0.8690832257 1.156462943e-007 0.4946658909
v -0.852660954 -0.2499997467 2.342666864 1.677282171e-007 1 0.2833296657
vn 0.4711765349 -3.456050596e-017 -0.8820389509
v -1.023232222 -0.2499997318 2.81130743 8.345596553e-022 1 0.2833295166
vn -0.4537411928 2.741682295e-007 0.8911334872
v -2.16973567 -0.2499996722 1.226982355 8.345596553e-022 1 0.2833295166
vn 0.840875864 -5.345629717e-008 -0.5412279963
v -1.383296847 -0.2499996722 2.651476622 8.345596048e-022 1 0.2833295166
vn -0.5316973329 3.316906998e-007 0.8469344378
v -1.869892836 -0.2499996722 2.334289789 8.345597563e-022 1 0.2833295465
vn -0.6441789865 2.205404144e-007 0.7648747563
v -2.474067688 0.2500003576 1.683278561 8.345596048e-022 1 0.2833295465
vn -0.7977380753 9.113760768e-008 0.6030040979
v -1.91222918 0.2500003576 1.599036932 6.676646649e-007 1 0.2833300233
vn 0.7964354753 -4.79778528e-008 -0.6047235131
v -2.813616753 0.2500003576 1.024073243 8.345597563e-022 1 0.2833295166
vn -0.9029584527 1.323175809e-007 0.4297279119
v -2.169376612 -0.2499996722 2.060280561 8.345596048e-022 1 0.2833294868
vn -0.7499443889 1.064409361e-007 0.6615008712
v -1.330984354 -0.2499997318 2.105601788 1.414004708e-017 1 0.2833295465
vn 0.5251073837 -6.824865117e-010 -0.8510360122
v -2.16973567 0.2500003576 1.226982355 2.097375607e-010 1 0.2833295465
vn 0.8702474833 -5.421668092e-008 -0.4926148057
v -2.668220282 -0.2499996722 1.355962873 8.345597058e-022 1 0.2833295166
vn -0.8904497027 1.26014811e-007 0.4550817013
# mm_gid 0
g mmGroup0
f 14//14 7//7 22//22 
f 11//11 4//4 8//8 
f 25//25 14//14 20//20 
f 20//20 3//3 21//21 
f 4//4 3//3 8//8 
f 14//14 25//25 7//7 
f 6//6 9//9 12//12 
f 21//21 3//3 4//4 
f 25//25 20//20 21//21 
f 6//6 11//11 9//9 
f 8//8 9//9 11//11 
f 26//26 10//10 5//5 
f 24//24 19//19 13//13 
f 17//17 2//2 26//26 
f 2//2 1//1 23//23 
f 13//13 19//19 23//23 
f 26//26 5//5 17//17 
f 15//15 16//16 18//18 
f 1//1 13//13 23//23 
f 17//17 1//1 2//2 
f 15//15 18//18 24//24 
f 19//19 24//24 18//18 
f 29//29 27//27 30//30 
f 29//29 30//30 34//34 
f 31//31 33//33 32//32 
f 31//31 32//32 28//28 
f 59//59 51//51 39//39 
f 59//59 39//39 41//41 
f 55//55 35//35 51//51 
f 55//55 51//51 59//59 
f 38//38 47//47 35//35 
f 38//38 35//35 55//55 
f 45//45 58//58 47//47 
f 45//45 47//47 38//38 
f 40//40 49//49 58//58 
f 40//40 58//58 45//45 
f 43//43 52//52 50//50 
f 43//43 50//50 46//46 
f 42//42 53//53 52//52 
f 42//42 52//52 43//43 
f 37//37 57//57 53//53 
f 37//37 53//53 42//42 
f 54//54 36//36 57//57 
f 54//54 57//57 37//37 
f 48//48 60//60 36//36 
f 48//48 36//36 54//54 
f 56//56 44//44 60//60 
f 56//56 60//60 48//48 
