v -0.2499996126 1.912229538 1.599036813 1 0.0999923721 1.429324434e-043
vn -1 -2.925854758e-008 1.629815571e-008
v -0.2499996126 2.474067926 1.683278322 1 0.0999923721 0
vn -1 -3.394312387e-008 2.18857128e-008
v 0.2500004172 2.16937685 2.060280323 1 0.09999237955 0
vn 1 6.133461028e-008 -2.71080971e-008
v 0.2500004172 1.622438192 1.890057087 1 0.0999923721 0
vn 1 1.05828974e-007 -4.335535309e-008
v -0.2499996126 2.344021797 0.8531544209 1 0.0999923721 0
vn -1 -2.570751292e-007 1.657558926e-007
v 0.2500006258 0.852661252 2.342666626 1 0.09999236465 3.517259145e-043
vn 1 1.216381662e-007 -2.608318184e-008
v 0.2500004172 2.344021797 0.8531543612 1 0.0999923721 0
vn 1 2.570750439e-007 -1.657560063e-007
v 0.2500004172 1.869893074 2.334289551 1 0.0999923721 0
vn 1 1.710723581e-007 -5.765298994e-008
v 0.2500006258 1.383297205 2.651476145 1 0.09999237955 0
vn 1 1.58661507e-007 -3.802503556e-008
v -0.2499998212 2.813616753 1.024073005 1 0.0999923721 0
vn -1 -3.132657866e-007 2.019862961e-007
v 0.2500006258 1.330984712 2.105601549 1 0.0999923721 0
vn 1 1.852880587e-007 -5.767753564e-008
v 0.2500006258 1.023232579 2.811307192 1 0.09999236465 0
vn 1 5.664262659e-008 -5.428201e-009
v -0.2499996126 1.622438192 1.890057087 1 0.09999236465 0
vn -1 -1.126295359e-007 4.43371917e-008
v 0.2500004172 2.668220758 1.355962396 1 0.0999923721 0
vn 1 2.041206528e-007 -1.316122393e-007
v -0.249999404 0.852661252 2.342666864 1 0.09999236465 6.029121913e-033
vn -1 -1.074775255e-007 2.472613581e-008
v -0.249999404 1.023232579 2.81130743 1 0.09999237955 0
vn -1 -5.664263369e-008 5.428209882e-009
v -0.2499996126 2.169735909 1.226982117 1 0.0999923721 0
vn -1 -8.428600751e-008 5.434559824e-008
v -0.249999404 1.383297205 2.651476383 1 0.0999923721 0
vn -1 -1.788135506e-007 4.266119191e-008
v -0.2499996126 1.869893074 2.334289789 1 0.09999236465 0
vn -1 -1.871899542e-007 5.825335236e-008
v 0.2500004172 2.474067926 1.683278322 1 0.09999236465 0
vn 1 3.394310255e-008 -2.188572168e-008
v 0.2500004172 1.912229538 1.599036813 1 0.0999923721 0
vn 1 2.925854403e-008 -1.629815927e-008
v 0.2500002086 2.813616991 1.024073005 1 0.0999923721 0
vn 1 3.13265673e-007 -2.019864098e-007
v -0.2499996126 2.16937685 2.060280323 1 0.09999236465 0
vn -1 -6.435666222e-008 2.722065773e-008
v -0.249999404 1.330984712 2.105601549 1 0.09999236465 0
vn -1 -2.054401165e-007 6.231368843e-008
v 0.2500004172 2.169735909 1.226982117 1 0.0999923721 0
vn 1 8.428595777e-008 -5.434562667e-008
v -0.2499996126 2.66822052 1.355962634 1 0.0999923721 0
vn -1 -2.041207097e-007 1.316121683e-007
v -0.2499996126 2.344021797 0.8531544209 1 0.0999923721 0
vn -1.144387269e-007 0.3420200348 -0.9396926761
v 0.2500006258 0.852661252 2.342666626 1 0.09999236465 3.517259145e-043
vn 1.422848896e-007 -0.9396925569 0.342020303
v 0.2500004172 2.344021797 0.8531543612 1 0.0999923721 0
vn -1.200079396e-007 0.3420200348 -0.9396926761
v -0.2499998212 2.813616753 1.024073005 1 0.0999923721 0
vn -1.200079396e-007 0.3420200348 -0.9396926761
v 0.2500006258 1.023232579 2.811307192 1 0.09999236465 0
vn 1.422849181e-007 -0.9396925569 0.3420203626
v -0.249999404 0.852661252 2.342666864 1 0.09999236465 6.029121913e-033
vn 1.422849181e-007 -0.9396925569 0.3420203626
v -0.249999404 1.023232579 2.81130743 1 0.09999237955 0
vn 1.422849039e-007 -0.9396925569 0.3420203328
v 0.2500002086 2.813616991 1.024073005 1 0.0999923721 0
vn -1.255771451e-007 0.3420200348 -0.9396926761
v -0.2499996126 1.912229538 1.599036813 1 0.0999923721 1.429324434e-043
vn 9.76393159e-018 -0.7464862466 -0.6654008627
v -0.2499996126 2.474067926 1.683278322 1 0.0999923721 0
vn -2.893540874e-008 0.8355166316 0.5494651198
v 0.2500004172 2.16937685 2.060280323 1 0.09999237955 0
vn 1.50604663e-007 0.7044104934 0.7097927928
v 0.2500004172 1.622438192 1.890057087 1 0.0999923721 0
vn -1.163420382e-008 -0.6858267784 -0.7277647853
v -0.2499996126 2.344021797 0.8531544209 1 0.0999923721 0
vn -2.006210131e-008 -0.8868585229 -0.4620410502
v 0.2500006258 0.852661252 2.342666626 1 0.09999236465 3.517259145e-043
vn -1.354329697e-007 -0.4802493453 -0.8771319985
v 0.2500004172 2.344021797 0.8531543612 1 0.0999923721 0
vn -2.457361781e-008 -0.8966246843 -0.4427914023
v 0.2500004172 1.869893074 2.334289551 1 0.0999923721 0
vn 3.093305452e-007 0.5922137499 0.8057809472
v 0.2500006258 1.383297205 2.651476145 1 0.09999237955 0
vn 4.18016441e-007 0.4869238138 0.873444438
v -0.2499998212 2.813616753 1.024073005 1 0.0999923721 0
vn -2.99035861e-007 0.9095031023 0.4156970978
v 0.2500006258 1.330984712 2.105601549 1 0.0999923721 0
vn -6.155521248e-008 -0.5563833117 -0.8309257627
v 0.2500006258 1.023232579 2.811307192 1 0.09999236465 0
vn 4.189414256e-007 0.4288365245 0.9033821225
v -0.2499996126 1.622438192 1.890057087 1 0.09999236465 0
vn -3.251914293e-008 -0.630779922 -0.7759617567
v 0.2500004172 2.668220758 1.355962396 1 0.0999923721 0
vn -1.011164485e-007 0.8690832853 0.4946657419
v -0.249999404 0.852661252 2.342666864 1 0.09999236465 6.029121913e-033
vn -2.154459509e-007 -0.4590210021 -0.8884254098
v -0.249999404 1.023232579 2.81130743 1 0.09999237955 0
vn 4.166864187e-007 0.4480652213 0.8940008879
v -0.2499996126 2.169735909 1.226982117 1 0.0999923721 0
vn -6.835771948e-009 -0.840875864 -0.5412279963
v -0.249999404 1.383297205 2.651476383 1 0.0999923721 0
vn 3.827450143e-007 0.5268355608 0.8499672413
v -0.2499996126 1.869893074 2.334289789 1 0.09999236465 0
vn 2.374614922e-007 0.6391959786 0.7690438628
v 0.2500004172 2.474067926 1.683278322 1 0.09999236465 0
vn 3.790984238e-008 0.7993971109 0.6008030176
v 0.2500004172 1.912229538 1.599036813 1 0.0999923721 0
vn -2.693006484e-009 -0.7946730256 -0.6070377231
v 0.2500002086 2.813616991 1.024073005 1 0.0999923721 0
vn -2.518547149e-007 0.9029584527 0.4297277927
v -0.2499996126 2.16937685 2.060280323 1 0.09999236465 0
vn 9.640956478e-008 0.7509777546 0.6603275537
v -0.249999404 1.330984712 2.105601549 1 0.09999236465 0
vn -1.105614871e-007 -0.5113934278 -0.8593466878
v 0.2500004172 2.169735909 1.226982117 1 0.0999923721 0
vn -1.59742779e-008 -0.8702474833 -0.4926147759
v -0.2499996126 2.66822052 1.355962634 1 0.0999923721 0
vn -1.972181423e-007 0.8904497623 0.4550815523
# mm_gid 0
g mmGroup0
f 14//14 7//7 22//22 
f 11//11 4//4 8//8 
f 25//25 14//14 20//20 
f 20//20 3//3 21//21 
f 4//4 3//3 8//8 
f 14//14 25//25 7//7 
f 6//6 9//9 12//12 
f 21//21 3//3 4//4 
f 25//25 20//20 21//21 
f 6//6 11//11 9//9 
f 8//8 9//9 11//11 
f 26//26 10//10 5//5 
f 24//24 19//19 13//13 
f 17//17 2//2 26//26 
f 2//2 1//1 23//23 
f 13//13 19//19 23//23 
f 26//26 5//5 17//17 
f 15//15 16//16 18//18 
f 1//1 13//13 23//23 
f 17//17 1//1 2//2 
f 15//15 18//18 24//24 
f 19//19 24//24 18//18 
f 29//29 27//27 30//30 
f 29//29 30//30 34//34 
f 31//31 33//33 32//32 
f 31//31 32//32 28//28 
f 59//59 51//51 39//39 
f 59//59 39//39 41//41 
f 55//55 35//35 51//51 
f 55//55 51//51 59//59 
f 38//38 47//47 35//35 
f 38//38 35//35 55//55 
f 45//45 58//58 47//47 
f 45//45 47//47 38//38 
f 40//40 49//49 58//58 
f 40//40 58//58 45//45 
f 43//43 52//52 50//50 
f 43//43 50//50 46//46 
f 42//42 53//53 52//52 
f 42//42 52//52 43//43 
f 37//37 57//57 53//53 
f 37//37 53//53 42//42 
f 54//54 36//36 57//57 
f 54//54 57//57 37//37 
f 48//48 60//60 36//36 
f 48//48 36//36 54//54 
f 56//56 44//44 60//60 
f 56//56 60//60 48//48 
