v -0.2499999404 -0.2499999702 0.3750000298 0.01666285284 0 1
vn -1 1.862649128e-007 -4.563723621e-009
v -0.25 -2.048909664e-007 2.119886398 0.01666285098 0 1
vn -1 9.313227878e-008 -1.790738935e-008
v -0.2500000596 -0.2499999702 3.864769936 0.01666285284 0 1
vn -1 9.313264826e-008 -1.790743909e-008
v -0.2499999404 0.2499999255 0.3750000298 0.01666285284 0 1
vn -1 9.313190219e-008 -1.790733251e-008
v -0.2500000596 0.2499999255 3.864769936 0.01666285284 0 1
vn -1 -3.877290199e-013 -3.125105508e-008
v 0.2499998361 -0.2499999702 3.86476922 0.01666285284 0 1
vn 1 -1.862649128e-007 4.563830203e-009
v 0.2499998808 -2.048909664e-007 2.119886398 0.01666285284 0 1
vn 1 -1.862645576e-007 4.563780465e-009
v 0.2500000298 0.2499999255 3.86476922 0.01666285284 0 1
vn 1 -3.725287741e-007 -2.212340178e-008
v 0.2499999553 -0.2499999702 0.375 0.01666285284 0 1
vn 1 -3.827580343e-013 3.12509485e-008
v 0.2499999553 0.2499999255 0.375 0.01666285284 0 1
vn 1 -1.862642023e-007 4.563723621e-009
v -0.2499999404 -0.2499999702 0.3750000298 0.01666285284 0 1
vn 0 -1 6.123234263e-017
v -0.2500000596 -0.2499999702 3.864769936 0.01666285284 0 1
vn 0 -1 6.123234263e-017
v -0.2499999404 0.2499999255 0.3750000298 0.01666285284 0 1
vn 0 1 -6.123234263e-017
v -0.2500000596 0.2499999255 3.864769936 0.01666285284 0 1
vn 0 1 -6.123234263e-017
v 0.2499998361 -0.2499999702 3.86476922 0.01666285284 0 1
vn 0 -1 6.123234263e-017
v 0.2500000298 0.2499999255 3.86476922 0.01666285284 0 1
vn 0 1 -6.123234263e-017
v 0.2499999553 -0.2499999702 0.375 0.01666285284 0 1
vn 0 -1 6.123234263e-017
v 0.2499999553 0.2499999255 0.375 0.01666285284 0 1
vn 0 1 -6.123234263e-017
v -0.2499999404 0.2499999255 0.3750000298 0.01666285284 0 1
vn -4.656613939e-008 -6.123234263e-017 -1
v -0.2500000596 -0.2499999702 3.864769936 0.01666285284 0 1
vn 7.549790126e-008 6.123234263e-017 1
v -0.2499999404 -0.2499999702 0.3750000298 0.01666285284 0 1
vn -4.656613939e-008 -6.123234263e-017 -1
v -0.2500000596 0.2499999255 3.864769936 0.01666285284 0 1
vn 7.549790126e-008 6.123234263e-017 1
v 0.2499998361 -0.2499999702 3.86476922 0.01666285284 0 1
vn 7.549790126e-008 6.123234263e-017 1
v 0.2500000298 0.2499999255 3.86476922 0.01666285284 0 1
vn 7.549790126e-008 6.123234263e-017 1
v 0.2499999553 0.2499999255 0.375 0.01666285284 0 1
vn -4.656613939e-008 -6.123234263e-017 -1
v 0.2499999553 -0.2499999702 0.375 0.01666285284 0 1
vn -4.656613939e-008 -6.123234263e-017 -1
# mm_gid 0
g mmGroup0
f 3//3 2//2 1//1 
f 2//2 5//5 4//4 
f 3//3 5//5 2//2 
f 1//1 2//2 4//4 
f 9//9 10//10 7//7 
f 6//6 7//7 8//8 
f 7//7 10//10 8//8 
f 6//6 9//9 7//7 
f 17//17 15//15 12//12 
f 17//17 12//12 11//11 
f 16//16 18//18 13//13 
f 16//16 13//13 14//14 
f 23//23 22//22 20//20 
f 23//23 24//24 22//22 
f 25//25 21//21 19//19 
f 25//25 26//26 21//21 
