v -0.3750000894 -0.2499999702 -0.2499998659 1 0.0999923721 0
vn -6.215429948e-008 9.313237115e-008 -1
v -2.119886398 -2.048909664e-007 -0.2499997318 1 0.0999923721 0
vn -6.215428527e-008 9.313227878e-008 -1
v -3.864769936 -0.2499997765 -0.2499997765 1 0.0999923721 0
vn -6.215427106e-008 9.313237115e-008 -1
v -0.3749998808 0.2499999255 -0.2499998659 1 0.0999923721 0
vn -6.215429948e-008 9.313218641e-008 -1
v -3.864769936 0.2500001192 -0.2499995977 1 0.09999237955 0
vn -6.215427106e-008 9.313218641e-008 -1
v -3.864769936 -0.2499998808 0.250000298 1 0.09999237955 0
vn 6.215427106e-008 -9.313234983e-008 1
v -2.11988616 -2.048909664e-007 0.2500003576 1 0.0999923721 0
vn 6.215428527e-008 -9.313226457e-008 1
v -3.864769936 0.2500001192 0.250000298 1 0.099992387 0
vn 6.215427106e-008 -9.31321722e-008 1
v -0.3750000298 -0.2499999702 0.2500000298 1 0.0999923721 0
vn 6.215429948e-008 -9.313235694e-008 1
v -0.374999851 0.2499999255 0.2500000298 1 0.0999923721 0
vn 6.215429948e-008 -9.313218641e-008 1
v -0.3750000894 -0.2499999702 -0.2499998659 1 0.0999923721 0
vn -5.337444264e-008 -1 4.090890885e-015
v -3.864769936 -0.2499997765 -0.2499997765 1 0.0999923721 0
vn -4.003083731e-008 -1 -9.313225746e-008
v -0.3749998808 0.2499999255 -0.2499998659 1 0.0999923721 0
vn 5.337444264e-008 1 -4.090890885e-015
v -3.864769936 0.2500001192 -0.2499995977 1 0.09999237955 0
vn 5.337444264e-008 1 -4.090890885e-015
v -3.864769936 -0.2499998808 0.250000298 1 0.09999237955 0
vn -2.668723376e-008 -1 -1.862645149e-007
v -3.864769936 0.2500001192 0.250000298 1 0.099992387 0
vn 5.337444264e-008 1 -4.090890885e-015
v -0.3750000298 -0.2499999702 0.2500000298 1 0.0999923721 0
vn -4.003083731e-008 -1 -9.313225746e-008
v -0.374999851 0.2499999255 0.2500000298 1 0.0999923721 0
vn 5.337444264e-008 1 -4.090890885e-015
v -0.3749998808 0.2499999255 -0.2499998659 1 0.0999923721 0
vn 1 -3.725291151e-007 -9.313227878e-008
v -3.864769936 -0.2499997765 -0.2499997765 1 0.0999923721 0
vn -1 4.622913048e-024 7.549790126e-008
v -0.3750000894 -0.2499999702 -0.2499998659 1 0.0999923721 0
vn 1 -3.725291151e-007 -9.313227878e-008
v -3.864769936 0.2500001192 -0.2499995977 1 0.09999237955 0
vn -1 4.622913048e-024 7.549790126e-008
v -3.864769936 -0.2499998808 0.250000298 1 0.09999237955 0
vn -1 4.622913048e-024 7.549790126e-008
v -3.864769936 0.2500001192 0.250000298 1 0.099992387 0
vn -1 4.622913048e-024 7.549790126e-008
v -0.374999851 0.2499999255 0.2500000298 1 0.0999923721 0
vn 1 -3.725291151e-007 -9.313227878e-008
v -0.3750000298 -0.2499999702 0.2500000298 1 0.0999923721 0
vn 1 -3.725291151e-007 -9.313227878e-008
# mm_gid 0
g mmGroup0
f 3//3 2//2 1//1 
f 2//2 5//5 4//4 
f 3//3 5//5 2//2 
f 1//1 2//2 4//4 
f 9//9 10//10 7//7 
f 6//6 7//7 8//8 
f 7//7 10//10 8//8 
f 6//6 9//9 7//7 
f 17//17 15//15 12//12 
f 17//17 12//12 11//11 
f 16//16 18//18 13//13 
f 16//16 13//13 14//14 
f 23//23 22//22 20//20 
f 23//23 24//24 22//22 
f 25//25 21//21 19//19 
f 25//25 26//26 21//21 
